<mxfile host="app.diagrams.net" modified="2021-05-04T06:57:05.499Z" agent="5.0 (Windows NT 10.0; Win64; x64) AppleWebKit/537.36 (KHTML, like Gecko) Chrome/90.0.4430.93 Safari/537.36" etag="7zm0RA19LnawUYjnAr6k" version="14.6.9" type="github">
  <diagram id="1DaJJSkL3XN_FZuzAKqe" name="第 1 页">
    <mxGraphModel dx="1038" dy="548" grid="1" gridSize="10" guides="1" tooltips="1" connect="1" arrows="1" fold="1" page="1" pageScale="1" pageWidth="827" pageHeight="1169" math="0" shadow="0">
      <root>
        <mxCell id="0" />
        <mxCell id="1" parent="0" />
        <mxCell id="I273y43amtsQnGsVu_zz-1" value="" style="rounded=1;whiteSpace=wrap;html=1;fillColor=#d5e8d4;" parent="1" vertex="1">
          <mxGeometry x="90" y="100" width="200" height="150" as="geometry" />
        </mxCell>
        <mxCell id="I273y43amtsQnGsVu_zz-2" style="edgeStyle=orthogonalEdgeStyle;rounded=0;orthogonalLoop=1;jettySize=auto;html=1;exitX=0;exitY=0.25;exitDx=0;exitDy=0;entryX=1;entryY=0.25;entryDx=0;entryDy=0;endArrow=none;endFill=0;" parent="1" source="I273y43amtsQnGsVu_zz-1" target="I273y43amtsQnGsVu_zz-1" edge="1">
          <mxGeometry relative="1" as="geometry">
            <Array as="points">
              <mxPoint x="190" y="150" />
              <mxPoint x="190" y="150" />
            </Array>
          </mxGeometry>
        </mxCell>
        <mxCell id="I273y43amtsQnGsVu_zz-3" style="edgeStyle=orthogonalEdgeStyle;rounded=0;orthogonalLoop=1;jettySize=auto;html=1;exitX=0;exitY=0.75;exitDx=0;exitDy=0;entryX=1;entryY=0.75;entryDx=0;entryDy=0;endArrow=none;endFill=0;" parent="1" source="I273y43amtsQnGsVu_zz-1" target="I273y43amtsQnGsVu_zz-1" edge="1">
          <mxGeometry relative="1" as="geometry">
            <Array as="points">
              <mxPoint x="200" y="205" />
              <mxPoint x="200" y="205" />
            </Array>
          </mxGeometry>
        </mxCell>
        <mxCell id="I273y43amtsQnGsVu_zz-8" style="edgeStyle=orthogonalEdgeStyle;rounded=1;orthogonalLoop=1;jettySize=auto;html=1;exitX=0;exitY=0.5;exitDx=0;exitDy=0;endArrow=classicThin;endFill=1;fillColor=#d5e8d4;strokeColor=#82b366;strokeWidth=2;entryX=0.049;entryY=-0.01;entryDx=0;entryDy=0;entryPerimeter=0;" parent="1" source="I273y43amtsQnGsVu_zz-4" target="I273y43amtsQnGsVu_zz-7" edge="1">
          <mxGeometry relative="1" as="geometry">
            <mxPoint x="102" y="346" as="targetPoint" />
            <Array as="points">
              <mxPoint x="60" y="130" />
              <mxPoint x="60" y="290" />
              <mxPoint x="93" y="290" />
            </Array>
          </mxGeometry>
        </mxCell>
        <mxCell id="I273y43amtsQnGsVu_zz-4" value="&lt;font size=&quot;1&quot;&gt;&lt;b style=&quot;font-size: 15px&quot;&gt;array&lt;/b&gt;&lt;/font&gt;" style="text;html=1;strokeColor=none;fillColor=none;align=center;verticalAlign=middle;whiteSpace=wrap;rounded=0;" parent="1" vertex="1">
          <mxGeometry x="170" y="120" width="40" height="20" as="geometry" />
        </mxCell>
        <mxCell id="I273y43amtsQnGsVu_zz-5" value="&lt;font size=&quot;1&quot;&gt;&lt;b style=&quot;font-size: 15px&quot;&gt;len&lt;/b&gt;&lt;/font&gt;" style="text;html=1;strokeColor=none;fillColor=none;align=center;verticalAlign=middle;whiteSpace=wrap;rounded=0;" parent="1" vertex="1">
          <mxGeometry x="170" y="170" width="40" height="20" as="geometry" />
        </mxCell>
        <mxCell id="I273y43amtsQnGsVu_zz-6" value="&lt;font size=&quot;1&quot;&gt;&lt;b style=&quot;font-size: 15px&quot;&gt;cap&lt;/b&gt;&lt;/font&gt;" style="text;html=1;strokeColor=none;fillColor=none;align=center;verticalAlign=middle;whiteSpace=wrap;rounded=0;" parent="1" vertex="1">
          <mxGeometry x="170" y="220" width="40" height="20" as="geometry" />
        </mxCell>
        <mxCell id="I273y43amtsQnGsVu_zz-7" value="" style="rounded=1;whiteSpace=wrap;html=1;strokeColor=#6c8ebf;fillColor=#dae8fc;" parent="1" vertex="1">
          <mxGeometry x="60" y="340" width="680" height="60" as="geometry" />
        </mxCell>
        <mxCell id="I273y43amtsQnGsVu_zz-10" style="edgeStyle=orthogonalEdgeStyle;rounded=1;orthogonalLoop=1;jettySize=auto;html=1;exitX=0.25;exitY=0;exitDx=0;exitDy=0;entryX=0.25;entryY=1;entryDx=0;entryDy=0;endArrow=none;endFill=0;strokeWidth=1;" parent="1" source="I273y43amtsQnGsVu_zz-7" target="I273y43amtsQnGsVu_zz-7" edge="1">
          <mxGeometry relative="1" as="geometry">
            <Array as="points">
              <mxPoint x="230" y="360" />
              <mxPoint x="230" y="360" />
            </Array>
          </mxGeometry>
        </mxCell>
        <mxCell id="I273y43amtsQnGsVu_zz-11" style="edgeStyle=orthogonalEdgeStyle;rounded=1;orthogonalLoop=1;jettySize=auto;html=1;exitX=0.5;exitY=0;exitDx=0;exitDy=0;entryX=0.5;entryY=1;entryDx=0;entryDy=0;endArrow=none;endFill=0;strokeWidth=1;" parent="1" source="I273y43amtsQnGsVu_zz-7" target="I273y43amtsQnGsVu_zz-7" edge="1">
          <mxGeometry relative="1" as="geometry">
            <Array as="points">
              <mxPoint x="400" y="370" />
              <mxPoint x="400" y="370" />
            </Array>
          </mxGeometry>
        </mxCell>
        <mxCell id="I273y43amtsQnGsVu_zz-12" style="edgeStyle=orthogonalEdgeStyle;rounded=1;orthogonalLoop=1;jettySize=auto;html=1;exitX=0.75;exitY=0;exitDx=0;exitDy=0;entryX=0.75;entryY=1;entryDx=0;entryDy=0;endArrow=none;endFill=0;strokeWidth=1;" parent="1" source="I273y43amtsQnGsVu_zz-7" target="I273y43amtsQnGsVu_zz-7" edge="1">
          <mxGeometry relative="1" as="geometry">
            <Array as="points">
              <mxPoint x="570" y="370" />
              <mxPoint x="570" y="370" />
            </Array>
          </mxGeometry>
        </mxCell>
        <mxCell id="I273y43amtsQnGsVu_zz-13" value="&lt;font style=&quot;font-size: 15px&quot;&gt;&lt;b&gt;slice对象&lt;/b&gt;&lt;/font&gt;" style="text;html=1;strokeColor=none;fillColor=none;align=center;verticalAlign=middle;whiteSpace=wrap;rounded=0;" parent="1" vertex="1">
          <mxGeometry x="140" y="70" width="100" height="20" as="geometry" />
        </mxCell>
        <mxCell id="I273y43amtsQnGsVu_zz-14" value="&lt;font style=&quot;font-size: 15px&quot;&gt;&lt;b&gt;存放slice数据的连续内存(数组)&lt;/b&gt;&lt;/font&gt;" style="text;html=1;strokeColor=none;fillColor=none;align=center;verticalAlign=middle;whiteSpace=wrap;rounded=0;" parent="1" vertex="1">
          <mxGeometry x="255" y="310" width="290" height="20" as="geometry" />
        </mxCell>
        <mxCell id="Vgdxi4r_-YVoNAz9qTOZ-1" value="" style="rounded=0;whiteSpace=wrap;html=1;fillColor=#f5f5f5;strokeColor=#666666;fontColor=#333333;" vertex="1" parent="1">
          <mxGeometry x="270" y="650" width="180" height="420" as="geometry" />
        </mxCell>
        <mxCell id="Vgdxi4r_-YVoNAz9qTOZ-2" style="edgeStyle=orthogonalEdgeStyle;rounded=0;orthogonalLoop=1;jettySize=auto;html=1;exitX=0;exitY=0.5;exitDx=0;exitDy=0;entryX=1;entryY=0.5;entryDx=0;entryDy=0;endArrow=none;endFill=0;" edge="1" parent="1" source="Vgdxi4r_-YVoNAz9qTOZ-1" target="Vgdxi4r_-YVoNAz9qTOZ-1">
          <mxGeometry relative="1" as="geometry">
            <Array as="points">
              <mxPoint x="370" y="860" />
              <mxPoint x="370" y="860" />
            </Array>
          </mxGeometry>
        </mxCell>
        <mxCell id="Vgdxi4r_-YVoNAz9qTOZ-4" style="edgeStyle=orthogonalEdgeStyle;rounded=0;orthogonalLoop=1;jettySize=auto;html=1;exitX=0;exitY=0.5;exitDx=0;exitDy=0;entryX=1;entryY=0.5;entryDx=0;entryDy=0;endArrow=none;endFill=0;" edge="1" parent="1">
          <mxGeometry relative="1" as="geometry">
            <mxPoint x="270" y="750" as="sourcePoint" />
            <mxPoint x="450" y="750" as="targetPoint" />
            <Array as="points">
              <mxPoint x="370" y="750" />
              <mxPoint x="370" y="750" />
            </Array>
          </mxGeometry>
        </mxCell>
        <mxCell id="Vgdxi4r_-YVoNAz9qTOZ-5" style="edgeStyle=orthogonalEdgeStyle;rounded=0;orthogonalLoop=1;jettySize=auto;html=1;exitX=0;exitY=0.5;exitDx=0;exitDy=0;entryX=1;entryY=0.5;entryDx=0;entryDy=0;endArrow=none;endFill=0;" edge="1" parent="1">
          <mxGeometry relative="1" as="geometry">
            <mxPoint x="270" y="970" as="sourcePoint" />
            <mxPoint x="450" y="970" as="targetPoint" />
            <Array as="points">
              <mxPoint x="370" y="970" />
              <mxPoint x="370" y="970" />
            </Array>
          </mxGeometry>
        </mxCell>
        <mxCell id="Vgdxi4r_-YVoNAz9qTOZ-7" style="edgeStyle=orthogonalEdgeStyle;rounded=0;orthogonalLoop=1;jettySize=auto;html=1;exitX=0;exitY=0.5;exitDx=0;exitDy=0;entryX=1;entryY=1;entryDx=0;entryDy=0;endArrow=classic;endFill=1;" edge="1" parent="1" source="Vgdxi4r_-YVoNAz9qTOZ-6" target="Vgdxi4r_-YVoNAz9qTOZ-1">
          <mxGeometry relative="1" as="geometry">
            <Array as="points">
              <mxPoint x="530" y="1060" />
              <mxPoint x="530" y="1070" />
            </Array>
          </mxGeometry>
        </mxCell>
        <mxCell id="Vgdxi4r_-YVoNAz9qTOZ-6" value="&lt;b&gt;&lt;font style=&quot;font-size: 13px&quot;&gt;SP&lt;/font&gt;&lt;/b&gt;" style="text;html=1;strokeColor=none;fillColor=none;align=center;verticalAlign=middle;whiteSpace=wrap;rounded=0;" vertex="1" parent="1">
          <mxGeometry x="610" y="1050" width="40" height="20" as="geometry" />
        </mxCell>
        <mxCell id="Vgdxi4r_-YVoNAz9qTOZ-8" value="&lt;font style=&quot;font-size: 14px&quot;&gt;&lt;b&gt;0&lt;/b&gt;&lt;/font&gt;" style="text;html=1;strokeColor=none;fillColor=none;align=center;verticalAlign=middle;whiteSpace=wrap;rounded=0;" vertex="1" parent="1">
          <mxGeometry x="200" y="1059" width="40" height="20" as="geometry" />
        </mxCell>
        <mxCell id="Vgdxi4r_-YVoNAz9qTOZ-10" value="&lt;font style=&quot;font-size: 14px&quot;&gt;&lt;b&gt;8&lt;/b&gt;&lt;/font&gt;" style="text;html=1;strokeColor=none;fillColor=none;align=center;verticalAlign=middle;whiteSpace=wrap;rounded=0;" vertex="1" parent="1">
          <mxGeometry x="200" y="960" width="40" height="20" as="geometry" />
        </mxCell>
        <mxCell id="Vgdxi4r_-YVoNAz9qTOZ-11" value="&lt;font style=&quot;font-size: 14px&quot;&gt;&lt;b&gt;16&lt;/b&gt;&lt;/font&gt;&lt;span style=&quot;color: rgba(0 , 0 , 0 , 0) ; font-family: monospace ; font-size: 0px&quot;&gt;%3CmxGraphModel%3E%3Croot%3E%3CmxCell%20id%3D%220%22%2F%3E%3CmxCell%20id%3D%221%22%20parent%3D%220%22%2F%3E%3CmxCell%20id%3D%222%22%20value%3D%22%26lt%3Bfont%20style%3D%26quot%3Bfont-size%3A%2014px%26quot%3B%26gt%3B%26lt%3Bb%26gt%3B0%26lt%3B%2Fb%26gt%3B%26lt%3B%2Ffont%26gt%3B%22%20style%3D%22text%3Bhtml%3D1%3BstrokeColor%3Dnone%3BfillColor%3Dnone%3Balign%3Dcenter%3BverticalAlign%3Dmiddle%3BwhiteSpace%3Dwrap%3Brounded%3D0%3B%22%20vertex%3D%221%22%20parent%3D%221%22%3E%3CmxGeometry%20x%3D%22200%22%20y%3D%221149%22%20width%3D%2240%22%20height%3D%2220%22%20as%3D%22geometry%22%2F%3E%3C%2FmxCell%3E%3C%2Froot%3E%3C%2FmxGraphModel%3E&lt;/span&gt;" style="text;html=1;strokeColor=none;fillColor=none;align=center;verticalAlign=middle;whiteSpace=wrap;rounded=0;" vertex="1" parent="1">
          <mxGeometry x="200" y="850" width="40" height="20" as="geometry" />
        </mxCell>
        <mxCell id="Vgdxi4r_-YVoNAz9qTOZ-12" value="&lt;font style=&quot;font-size: 14px&quot;&gt;&lt;b&gt;24&lt;/b&gt;&lt;/font&gt;" style="text;html=1;strokeColor=none;fillColor=none;align=center;verticalAlign=middle;whiteSpace=wrap;rounded=0;" vertex="1" parent="1">
          <mxGeometry x="200" y="740" width="40" height="20" as="geometry" />
        </mxCell>
        <mxCell id="Vgdxi4r_-YVoNAz9qTOZ-13" value="&lt;font style=&quot;font-size: 14px&quot;&gt;&lt;b&gt;32&lt;/b&gt;&lt;/font&gt;" style="text;html=1;strokeColor=none;fillColor=none;align=center;verticalAlign=middle;whiteSpace=wrap;rounded=0;" vertex="1" parent="1">
          <mxGeometry x="200" y="640" width="40" height="20" as="geometry" />
        </mxCell>
        <mxCell id="Vgdxi4r_-YVoNAz9qTOZ-14" value="&lt;font style=&quot;font-size: 15px&quot;&gt;&lt;b&gt;调用者BP&lt;/b&gt;&lt;/font&gt;" style="text;html=1;strokeColor=none;fillColor=none;align=center;verticalAlign=middle;whiteSpace=wrap;rounded=0;" vertex="1" parent="1">
          <mxGeometry x="320" y="690" width="80" height="20" as="geometry" />
        </mxCell>
        <mxCell id="Vgdxi4r_-YVoNAz9qTOZ-16" style="edgeStyle=orthogonalEdgeStyle;rounded=0;orthogonalLoop=1;jettySize=auto;html=1;exitX=0;exitY=0.5;exitDx=0;exitDy=0;entryX=1;entryY=0.234;entryDx=0;entryDy=0;entryPerimeter=0;endArrow=classic;endFill=1;" edge="1" parent="1" source="Vgdxi4r_-YVoNAz9qTOZ-15" target="Vgdxi4r_-YVoNAz9qTOZ-1">
          <mxGeometry relative="1" as="geometry" />
        </mxCell>
        <mxCell id="Vgdxi4r_-YVoNAz9qTOZ-15" value="&lt;span style=&quot;font-size: 13px&quot;&gt;&lt;b&gt;当前栈帧BP&lt;/b&gt;&lt;/span&gt;" style="text;html=1;strokeColor=none;fillColor=none;align=center;verticalAlign=middle;whiteSpace=wrap;rounded=0;" vertex="1" parent="1">
          <mxGeometry x="610" y="740" width="90" height="20" as="geometry" />
        </mxCell>
        <mxCell id="Vgdxi4r_-YVoNAz9qTOZ-17" value="&lt;font style=&quot;font-size: 16px&quot;&gt;&lt;b&gt;0&lt;/b&gt;&lt;/font&gt;" style="text;html=1;strokeColor=none;fillColor=none;align=center;verticalAlign=middle;whiteSpace=wrap;rounded=0;" vertex="1" parent="1">
          <mxGeometry x="340" y="1010" width="40" height="20" as="geometry" />
        </mxCell>
        <mxCell id="Vgdxi4r_-YVoNAz9qTOZ-18" value="&lt;font style=&quot;font-size: 16px&quot;&gt;&lt;b&gt;0&lt;/b&gt;&lt;/font&gt;" style="text;html=1;strokeColor=none;fillColor=none;align=center;verticalAlign=middle;whiteSpace=wrap;rounded=0;" vertex="1" parent="1">
          <mxGeometry x="340" y="900" width="40" height="20" as="geometry" />
        </mxCell>
        <mxCell id="Vgdxi4r_-YVoNAz9qTOZ-19" value="&lt;font style=&quot;font-size: 16px&quot;&gt;&lt;b&gt;0&lt;/b&gt;&lt;/font&gt;" style="text;html=1;strokeColor=none;fillColor=none;align=center;verticalAlign=middle;whiteSpace=wrap;rounded=0;" vertex="1" parent="1">
          <mxGeometry x="340" y="790" width="40" height="20" as="geometry" />
        </mxCell>
        <mxCell id="Vgdxi4r_-YVoNAz9qTOZ-20" value="&lt;font style=&quot;font-size: 15px&quot;&gt;&lt;b&gt;cap&lt;/b&gt;&lt;/font&gt;" style="text;html=1;strokeColor=none;fillColor=none;align=center;verticalAlign=middle;whiteSpace=wrap;rounded=0;" vertex="1" parent="1">
          <mxGeometry x="490" y="790" width="60" height="20" as="geometry" />
        </mxCell>
        <mxCell id="Vgdxi4r_-YVoNAz9qTOZ-21" value="&lt;font style=&quot;font-size: 15px&quot;&gt;&lt;b&gt;len&lt;/b&gt;&lt;/font&gt;" style="text;html=1;strokeColor=none;fillColor=none;align=center;verticalAlign=middle;whiteSpace=wrap;rounded=0;" vertex="1" parent="1">
          <mxGeometry x="490" y="900" width="60" height="20" as="geometry" />
        </mxCell>
        <mxCell id="Vgdxi4r_-YVoNAz9qTOZ-22" value="&lt;font style=&quot;font-size: 15px&quot;&gt;&lt;b&gt;array&lt;/b&gt;&lt;/font&gt;" style="text;html=1;strokeColor=none;fillColor=none;align=center;verticalAlign=middle;whiteSpace=wrap;rounded=0;" vertex="1" parent="1">
          <mxGeometry x="490" y="1010" width="60" height="20" as="geometry" />
        </mxCell>
      </root>
    </mxGraphModel>
  </diagram>
</mxfile>
